<?xml version="1.0" encoding="UTF-8" standalone="no"?>
<!-- Created with Inkscape (http://www.inkscape.org/) -->

<svg
   version="1.1"
   id="svg1"
   width="224"
   height="224"
   viewBox="0 0 224 224"
   xmlns="http://www.w3.org/2000/svg"
   xmlns:svg="http://www.w3.org/2000/svg">
  <defs
     id="defs1" />
  <g
     id="g1">
    <path
       style="fill:#000000;stroke-width:1.33574"
       d="M 73.413385,220.51852 C 56.187575,214.19349 37.234284,200.52594 25.749878,186.14752 17.117541,175.33987 7.6739661,156.56811 4.0812403,143.07501 -0.06140869,127.51656 -0.04113739,101.91686 4.1261934,86.305747 26.974976,0.71258061 132.8337,-26.638246 193.61396,37.347589 c 32.84453,34.57673 40.12366,85.441021 18.38022,128.435121 -10.73692,21.23047 -26.64456,37.78962 -46.1488,48.03881 -13.11811,6.89337 -19.63481,8.9939 -22.74261,7.33066 -2.34663,-1.25587 -2.55185,-3.06253 -2.55185,-22.4643 0,-19.61984 -0.22463,-21.54227 -3.20502,-27.42928 -3.45369,-6.82191 -3.52726,-6.70437 5.09866,-8.14585 15.95905,-2.66693 31.31938,-13.50457 36.62709,-25.84269 3.70759,-8.61855 6.06636,-24.39723 5.00153,-33.45723 -0.92208,-7.845394 -4.45866,-16.975575 -8.62926,-22.277663 -2.2085,-2.807621 -2.39449,-4.05967 -1.2297,-8.278173 1.51103,-5.472476 0.77727,-16.214168 -1.51367,-22.159161 -1.35252,-3.509797 -1.87364,-3.749633 -6.45839,-2.972368 -2.74295,0.465017 -9.84604,3.259926 -15.78469,6.210908 -10.47148,5.203407 -10.99581,5.318827 -17.3647,3.82215 -8.72921,-2.051326 -31.41981,-2.087565 -40.80425,-0.06519 -7.412528,1.597447 -7.646046,1.553287 -16.028966,-3.031574 -9.744637,-5.329625 -20.707674,-8.51578 -22.642834,-6.58062 -2.470376,2.470376 -4.220567,17.283818 -2.818664,23.856909 1.23652,5.797664 1.055674,6.642925 -2.519615,11.776509 -8.267332,11.870652 -9.625283,29.427933 -3.747851,48.456843 4.757078,15.40162 18.294599,26.47272 37.047855,30.29804 4.579124,0.93407 8.292647,2.11815 8.252276,2.6313 -0.07064,0.89786 -3.33315,8.82496 -5.338618,12.97153 -0.532971,1.102 -3.824347,2.56608 -7.314167,3.25352 -9.528464,1.87697 -15.912276,-0.85265 -23.228613,-9.93224 -6.718781,-8.33802 -13.90473,-13.34059 -19.177533,-13.35064 -6.077206,-0.012 -5.68,2.62393 1.378626,9.14726 3.721349,3.43914 7.997312,9.03636 9.502142,12.43826 5.411498,12.23359 15.754174,17.96585 30.30787,16.79761 l 8.489115,-0.6814 v 11.82091 c 0,10.31991 -0.328072,11.99649 -2.583682,13.20366 -1.421024,0.7605 -2.773468,1.34037 -3.005431,1.28862 -0.231962,-0.0518 -2.683134,-0.92446 -5.447045,-1.93932 z"
       id="path1" />
  </g>
</svg>
